<?xml version="1.0" standalone="no"?>
<!DOCTYPE svg PUBLIC "-//W3C//DTD SVG 20010904//EN"
 "http://www.w3.org/TR/2001/REC-SVG-20010904/DTD/svg10.dtd">
<svg version="1.0" xmlns="http://www.w3.org/2000/svg"
 width="400.000000pt" height="400.000000pt" viewBox="0 0 400.000000 400.000000"
 preserveAspectRatio="xMidYMid meet">
<metadata>
Created by potrace 1.16, written by Peter Selinger 2001-2019
</metadata>
<g transform="translate(0.000000,400.000000) scale(0.100000,-0.100000)"
fill="#000000" stroke="none">
<path d="M1720 3985 c-201 -29 -392 -87 -575 -174 -225 -107 -387 -221 -561
-395 -174 -174 -288 -337 -395 -561 -133 -281 -189 -532 -189 -855 0 -323 56
-574 189 -855 107 -224 221 -387 395 -561 174 -174 337 -288 561 -395 281
-133 532 -189 855 -189 323 0 574 56 855 189 224 107 387 221 561 395 174 174
288 337 395 561 133 281 189 532 189 855 0 323 -56 574 -189 855 -107 224
-221 387 -395 561 -313 312 -703 507 -1141 569 -122 18 -436 18 -555 0z m324
-1775 c461 -539 842 -983 847 -986 5 -3 9 107 9 265 l0 271 155 0 155 0 0
-475 0 -475 -204 0 -205 0 -848 990 -848 989 -3 -274 -2 -275 -155 0 -155 0 0
475 0 475 208 0 209 0 837 -980z m1166 505 l0 -475 -155 0 -155 0 0 320 0 320
-257 0 -258 0 -115 141 c-63 78 -119 148 -123 155 -7 12 74 14 528 14 l535 0
0 -475z m-2110 -1275 l0 -320 254 0 255 0 74 -87 c40 -49 97 -118 126 -155
l53 -68 -536 0 -536 0 0 475 0 475 155 0 155 0 0 -320z"/>
</g>
</svg>
